<?xml version="1.0" encoding="utf-8"?>
<svg viewBox="0 0 500 500" xmlns="http://www.w3.org/2000/svg">
  <defs>
    <linearGradient id="Unbenannter_Verlauf_284" data-name="Unbenannter Verlauf 284" x1="454.57" y1="430.95" x2="454.57" y2="164.69" gradientUnits="userSpaceOnUse" gradientTransform="matrix(1, 0, 0, 1, -204.57077, -47.820404)">
      <stop offset="0" stop-color="#eca936"/>
      <stop offset="1" stop-color="#780063"/>
    </linearGradient>
  </defs>
  <path class="cls-2" d="M 462.88 271.32 C 446.83 264.88 419.27 256.95 386.87 260.54 C 391.11 254.72 395.03 248.38 398.27 241.56 C 401.33 235.15 407.01 223.23 408.98 205.86 C 409.86 197.98 409.86 189.92 408.98 181.94 L 408.47 177.36 L 404.31 176.79 C 397.13 175.79 389.87 175.79 382.73 176.79 C 367.09 178.95 356.33 185.27 350.52 188.64 C 334.88 197.78 322.02 211.65 312.63 224.12 C 309.74 197.24 300.57 176.48 293.09 163.49 C 282.87 145.7 268.98 130.29 252.87 118.91 L 250 116.87 L 247.13 118.91 C 231.02 130.29 217.13 145.7 206.91 163.49 C 199.43 176.48 190.26 197.24 187.37 224.12 C 177.98 211.65 165.13 197.78 149.48 188.64 C 143.69 185.27 132.91 178.95 117.27 176.79 C 110.13 175.79 102.87 175.79 95.69 176.79 L 91.53 177.36 L 91.02 181.94 C 90.14 189.92 90.14 197.97 91.02 205.86 C 92.99 223.22 98.67 235.14 101.73 241.58 C 104.97 248.37 108.87 254.71 113.11 260.51 C 80.73 256.95 53.17 264.88 37.12 271.32 L 34.38 272.41 L 36.16 275 C 68.26 321.48 121.36 377.91 192.02 382.8 C 195.26 383.01 198.51 383.13 201.77 383.13 C 205.03 383.13 208.31 383.01 211.56 382.8 L 221.74 382.09 C 121.75 351.99 100.04 296.61 100.04 296.61 C 116.52 294.16 133.17 294.16 149.65 296.68 L 149.67 296.68 C 150.85 296.87 152.05 297.06 153.23 297.27 C 154.04 297.41 154.84 297.55 155.65 297.72 C 172.64 300.93 189.06 306.79 204.57 315.13 C 206.22 315.98 207.85 316.91 209.48 317.84 C 209.8 318.03 210.1 318.2 210.42 318.39 L 222.27 325.35 C 215.81 317.92 192.06 266.34 216.14 212.25 C 225.63 192.92 239.33 180.71 250 173.56 C 260.67 180.71 274.37 192.92 283.86 212.25 C 307.78 266.34 284.19 317.92 277.73 325.35 C 277.73 325.35 289.58 318.39 289.58 318.39 C 289.9 318.2 290.2 318.03 290.52 317.84 C 292.15 316.91 293.78 315.99 295.43 315.13 C 310.94 306.79 327.36 300.93 344.35 297.72 L 350.33 296.68 L 350.35 296.68 C 366.81 294.16 383.48 294.16 399.96 296.61 C 399.96 296.61 378.24 351.98 278.26 382.09 L 288.44 382.8 C 291.7 383.01 294.95 383.13 298.23 383.13 C 301.51 383.13 304.74 383.01 307.98 382.8 C 378.63 377.91 431.74 321.48 463.84 275 L 465.62 272.41 L 462.88 271.32 Z M 154.34 271.34 C 148.32 268.77 142.36 266.71 136.51 265.07 C 129.59 254.83 123.78 242.06 121.9 226.76 C 121.26 221.44 121.11 216 121.47 210.54 C 126.42 210.11 131.33 210.28 136.13 211.02 C 159.4 214.53 176.2 230.4 186.49 243.77 C 186.83 265.6 191.7 284.33 197.2 298.68 C 184.19 287.09 169.83 277.95 154.34 271.34 Z M 378.11 226.76 C 376.22 242.05 370.42 254.83 363.5 265.07 C 357.65 266.71 351.69 268.77 345.67 271.34 C 330.18 277.94 315.82 287.09 302.81 298.68 C 308.32 284.34 313.18 265.6 313.52 243.77 C 323.81 230.4 340.61 214.53 363.88 211.02 C 368.68 210.28 373.61 210.12 378.54 210.54 C 378.9 216 378.75 221.44 378.11 226.76 Z" style="fill: url('#Unbenannter_Verlauf_284'); transform-origin: 149.255px 250px;"/>
</svg>